<svg width="50" height="50" fill="none" stroke="currentColor" stroke-linecap="round" stroke-linejoin="round" stroke-width="1" viewBox="0 0 24 24" xmlns="http://www.w3.org/2000/svg">
  <path d="M8.625 5.25h-2.25a.75.75 0 0 0-.75.75v12c0 .414.336.75.75.75h2.25a.75.75 0 0 0 .75-.75V6a.75.75 0 0 0-.75-.75Z"></path>
  <path d="M17.625 5.25h-2.25a.75.75 0 0 0-.75.75v12c0 .414.336.75.75.75h2.25a.75.75 0 0 0 .75-.75V6a.75.75 0 0 0-.75-.75Z"></path>
  <path d="M18.375 7.5H21a.75.75 0 0 1 .75.75v7.5a.75.75 0 0 1-.75.75h-2.625"></path>
  <path d="M5.625 16.5H3a.75.75 0 0 1-.75-.75v-7.5A.75.75 0 0 1 3 7.5h2.625"></path>
  <path d="M9.375 12h5.25"></path>
  <path d="M21.75 12h1.125"></path>
  <path d="M1.125 12H2.25"></path>
</svg>