<?xml version="1.0" encoding="utf-8"?>
<!-- Generator: Adobe Illustrator 26.2.1, SVG Export Plug-In . SVG Version: 6.00 Build 0)  -->
<svg version="1.1" id="Layer_1" xmlns="http://www.w3.org/2000/svg" xmlns:xlink="http://www.w3.org/1999/xlink" x="0px" y="0px"
	 viewBox="0 0 72.1 72.1" style="enable-background:new 0 0 72.1 72.1;" xml:space="preserve">
<style type="text/css">
	.st0{fill:none;stroke:#5B2946;stroke-width:2;}
	.st1{enable-background:new    ;}
	.st2{fill:#5B2946;}
</style>
<g id="Group_1" transform="translate(-53.964 -38.964)">
	<line id="Line_1" class="st0" x1="120.3" y1="73.7" x2="88.3" y2="105.7"/>
	<g class="st1">
		<path class="st2" d="M81.2,64.7h2.1v12.5c0,1.1-0.2,2.1-0.6,2.8c-0.4,0.8-1,1.4-1.7,1.8c-0.7,0.4-1.6,0.6-2.6,0.6
			c-1,0-1.8-0.2-2.5-0.5C75,81.5,74.4,81,74,80.4s-0.6-1.4-0.6-2.3h2.1c0,0.5,0.1,0.9,0.4,1.3s0.6,0.7,1,0.9
			c0.4,0.2,0.9,0.3,1.5,0.3c0.6,0,1.1-0.1,1.6-0.4c0.4-0.3,0.8-0.6,1-1.1c0.2-0.5,0.3-1.1,0.3-1.8V64.7z"/>
		<path class="st2" d="M89.5,82.2V64.7h5.9c1.4,0,2.5,0.2,3.4,0.7s1.5,1.1,1.9,1.9c0.4,0.8,0.6,1.7,0.6,2.8s-0.2,1.9-0.6,2.7
			c-0.4,0.8-1.1,1.4-1.9,1.9c-0.9,0.5-2,0.7-3.3,0.7h-4.8v-1.9h4.7c0.9,0,1.7-0.1,2.3-0.4c0.6-0.3,1-0.7,1.2-1.2s0.4-1.1,0.4-1.8
			c0-0.7-0.1-1.3-0.4-1.8c-0.3-0.5-0.7-0.9-1.3-1.2c-0.6-0.3-1.3-0.4-2.3-0.4h-3.7v15.6H89.5z M97.7,74.3l4.3,7.8h-2.5l-4.2-7.8
			H97.7z"/>
	</g>
	<polygon class="st2" points="62.8,48.2 105.7,48.2 103.7,50.2 64.8,50.2 64.8,89.1 62.8,91.2 	"/>
	<polyline class="st2" points="113.8,99.2 113.8,54.2 111.8,56.3 111.8,97.2 70.8,97.2 68.9,99.2 	"/>
</g>
</svg>
