<svg fill="#000000" xmlns="http://www.w3.org/2000/svg"  viewBox="0 0 50 50" width="50px" height="50px"><path d="M46.972,5.86c-0.01-0.07-0.017-0.138-0.041-0.204c-0.023-0.062-0.058-0.113-0.092-0.169	c-0.033-0.054-0.062-0.108-0.105-0.156c-0.048-0.053-0.106-0.09-0.164-0.132c-0.039-0.028-0.066-0.066-0.11-0.088	c-0.011-0.006-0.024-0.005-0.036-0.01c-0.063-0.03-0.133-0.041-0.202-0.057c-0.061-0.014-0.12-0.034-0.182-0.037	C46.025,5.007,46.014,5,46,5H33c-0.402,0-0.766,0.241-0.922,0.612L24.86,22.756L16.916,4.6c-0.171-0.392-0.563-0.639-0.999-0.596	L3.938,5.002C3.854,5.007,3.771,5.022,3.689,5.049C3.593,5.081,3.502,5.127,3.421,5.185C3.293,5.275,3.191,5.393,3.12,5.523	C3.062,5.633,3.022,5.753,3.007,5.881C3.002,5.927,2.999,5.974,3,6.021V45c0,0.489,0.354,0.906,0.836,0.986	c0.102,0.017,1.108,0.178,2.611,0.178c2.336,0,5.87-0.388,9.067-2.307c0.318-0.19,0.505-0.542,0.483-0.913l-0.803-14.449	l4.928,8.985C20.299,37.801,20.635,38,21,38h9c0.088,0,0.175-0.013,0.258-0.035c0.023-0.006,0.043-0.018,0.066-0.026	c0.059-0.02,0.117-0.042,0.172-0.073c0.028-0.016,0.052-0.038,0.079-0.056c0.044-0.031,0.086-0.062,0.125-0.1	c0.026-0.026,0.048-0.056,0.072-0.085c0.022-0.027,0.047-0.049,0.066-0.078c0.01-0.015,0.014-0.033,0.023-0.048	c0.008-0.014,0.021-0.025,0.028-0.04L34,31.431V43c0,0.334,0.167,0.646,0.445,0.832l3,2c0.097,0.065,0.206,0.105,0.319,0.133	c0.012,0.003,0.021,0.012,0.034,0.015c0.067,0.013,0.134,0.02,0.2,0.02c0.001,0,0.001,0,0.002,0h8c0.553,0,1-0.447,1-1V6	C47,5.95,46.979,5.908,46.972,5.86z M5,9.903l7.817,14.254L5,40.573V9.903z M5.521,44.133l7.648-16.062l0.797,14.365	C10.841,44.108,7.379,44.222,5.521,44.133z M21.592,36L5.617,6.869l9.753-0.813L28.471,36H21.592z M30.074,34.675l-4.109-9.391	L33.664,7h10.694L34.036,27H34v0.069L30.074,34.675z M36,27.556l7.21-13.97c-1.625,8.936-4.889,24.893-5.89,29.759L36,42.465V27.556	z M39.228,44c0.911-4.424,4.057-19.773,5.772-29.076V44H39.228z"/></svg>